<svg fill="gray" xmlns="http://www.w3.org/2000/svg" data-name="Layer 1" viewBox="0 0 128 128"><path d="M127.16 124.37c-9.29-6.65-22.52-11.55-37.56-14.18a5.557 5.557 0 0 0 1.46-2.2 4.654 4.654 0 0 0-.3-3.88c-1.17-2.14-4.07-3.77-8.59-4.84l5.44-30.71c4.39.92 10.3.54 14.5.05a7.927 7.927 0 0 0 4.41-2.02 7.605 7.605 0 0 0 2.47-5.33 7.502 7.502 0 0 0-2.28-5.76 8.225 8.225 0 0 0-6.27-2.34.88.88 0 0 0-.17.02c-3.89.11-12.5-1.28-16.12-1.93a25.238 25.238 0 0 1-3.75 2.8c.48.76 1.09.93 8.82 2.08a64.891 64.891 0 0 0 11.68 1.02h.07a4.232 4.232 0 0 1 2.93 1.19 3.644 3.644 0 0 1-.08 5.3 3.98 3.98 0 0 1-2.18 1c-3.18.37-9.14.86-13.2.01a4.006 4.006 0 0 0-4.79 3.21l-1.74 9.88A34.992 34.992 0 0 0 68 74.98V57.94c-.66.04-1.33.07-2 .07s-1.34-.03-2-.07v17.24a47.441 47.441 0 0 0-13.19 3.28l-1.96-10.64a3.966 3.966 0 0 0-1.71-2.59 4.063 4.063 0 0 0-3.08-.59 36.15 36.15 0 0 1-9.29.35 11.963 11.963 0 0 0 .21-3.11 15.48 15.48 0 0 0-.95-4.73 92.512 92.512 0 0 0 9.31-1.02c6.9-1.02 8.13-1.27 8.65-1.85a25.13 25.13 0 0 1-4.05-2.95c-3.99.71-12.52 2.05-16.02 1.83a8.2 8.2 0 0 0-2.93.36l-5.02-30.83a2.105 2.105 0 0 0-.16-.52c6.62-6.69 13.4-7.83 17.22-7.83h.04a3.37 3.37 0 0 0 .09 2.89c1.31 2.41 4.98 1.93 8.4 1.15 8.41-1.92 24.52 3.15 24.68 3.2a2.007 2.007 0 0 0 2.34-2.92l-3.77-6.44 3.62-3.72a2 2 0 0 0-1.04-3.36c-1.21-.23-3.04-.59-4.94-.89a.195.195 0 0 1-.07-.01c-6.4-1.02-11.55-1.27-15.29-.72a30.532 30.532 0 0 1-3.54.33.839.839 0 0 1 .12-.08 2.032 2.032 0 0 0 .77-2.15A2.01 2.01 0 0 0 50.7.15c-.81-.08-19.86-1.8-32.96 8.79a1.992 1.992 0 0 0-.7 1.93l2.2 11.51a1.972 1.972 0 0 0 .84 1.27l5.17 31.75a7.054 7.054 0 0 0-2.19 6.13 8.06 8.06 0 0 0 4.16 5.98l7.08 43.47c-13.33 2.76-25.02 7.35-33.46 13.39-.9.65-.94 3.63.16 3.63h125a2 2 0 0 0 1.16-3.63ZM31.47 68.73c4.11.42 9.44.68 13.44-.18l5.69 30.72c-4.55 1.09-7.44 2.72-8.6 4.84a4.752 4.752 0 0 0-.29 3.89 5.454 5.454 0 0 0 .85 1.53c-1.46.21-2.91.44-4.34.7Zm19.29 54.79a11.72 11.72 0 0 1-4.1 1.42 13.641 13.641 0 0 1-2.26.2c-3.01 0-4.99-1.11-5.3-2.98-.14-.8-.04-2.35 2.14-3.68a11.721 11.721 0 0 1 4.1-1.42 13.64 13.64 0 0 1 2.26-.2c3.01 0 4.99 1.11 5.3 2.98.14.8.04 2.35-2.14 3.68ZM64 108c-.31 0-.61.01-.92.02a8.591 8.591 0 0 0 1.73-7.54c-1.31-7.17-.48-10.84.21-12.47h2.73c.69 1.63 1.53 5.31.22 12.47a8.58 8.58 0 0 0 1.8 7.64c-1.91-.07-3.83-.12-5.77-.12Zm28.9 14.16c-.31 1.87-2.29 2.98-5.3 2.98a13.64 13.64 0 0 1-2.26-.2 11.72 11.72 0 0 1-4.1-1.42c-2.18-1.33-2.28-2.88-2.14-3.68.31-1.87 2.29-2.98 5.3-2.98a13.641 13.641 0 0 1 2.26.2 11.721 11.721 0 0 1 4.1 1.42c2.18 1.33 2.28 2.88 2.14 3.68Z"/><path d="M113 89h11.33a12.896 12.896 0 0 0 .34-3 13.666 13.666 0 0 0-25.4-7H109a2 2 0 0 1 0 4H97.67a12.958 12.958 0 0 0-.34 3 13.669 13.669 0 0 0 25.41 7H113a2 2 0 0 1 0-4zM98.33 22.76a10.967 10.967 0 0 0 8.58 4.25h.09a11.033 11.033 0 0 0 11-10.91v-.36a31.42 31.42 0 0 1-7.73 4.36 35.395 35.395 0 0 1-11.94 2.66zm10.43-6.36a24.813 24.813 0 0 0 8.18-5.08 11 11 0 0 0-9.85-6.31H107a11.027 11.027 0 0 0-11 10.91 10.87 10.87 0 0 0 .34 2.81 29.9 29.9 0 0 0 12.42-2.33z"/><circle cx="7" cy="23.01" r="7"/><path d="M9 70a8.995 8.995 0 1 0-9-8.99A9.005 9.005 0 0 0 9 70zm116.92-29.5-2.85-1.56-1.56-2.85a4.002 4.002 0 0 0-7.02 0l-1.56 2.85-2.85 1.56a4.002 4.002 0 0 0 0 7.02l2.85 1.55 1.56 2.86a4.002 4.002 0 0 0 7.02 0l1.56-2.86 2.85-1.55a4.002 4.002 0 0 0 0-7.02zM9.47 95.46l1.19.16.91.77a3.997 3.997 0 0 0 6.55-2.53l.16-1.18.77-.92a3.992 3.992 0 0 0-2.52-6.54l-1.19-.16-.91-.78a3.997 3.997 0 0 0-6.55 2.53l-.16 1.18-.77.92a4.002 4.002 0 0 0 2.52 6.55zm63.72-70.03c-.12.03-.23.05-.35.09a24.123 24.123 0 0 1-13.68 0 3.993 3.993 0 0 0-4.18 1.07A10.861 10.861 0 0 0 52 34.01c0 6.61 6.28 12 14 12s14-5.39 14-12a10.861 10.861 0 0 0-2.98-7.42 4.068 4.068 0 0 0-1.42-.98 5.965 5.965 0 0 1-2.41-.18z"/><path d="m83.99 32.265 2.026-.258a2 2 0 0 1 .004 4l-2.03-.258-.43 1.724C81.752 44.735 74.367 50.006 66 50.006s-15.751-5.27-17.56-12.533l-.43-1.724-2.01.258a2 2 0 0 1-.02-4l2.03.258.43-1.724a15.73 15.73 0 0 1 5.802-8.587 16.889 16.889 0 0 0-3.79.326c-.665.153-1.601.367-2.678.522a19.27 19.27 0 0 0-2.782 5.29 6 6 0 0 0 0 11.83C47.812 48.288 56.225 54.006 66 54.006s18.188-5.718 21.008-14.084a6 6 0 0 0 0-11.83 19.763 19.763 0 0 0-6.184-8.881 6.022 6.022 0 0 1-1.29 4.21c-.013.016-.03.03-.042.046a15.314 15.314 0 0 1 4.069 7.074zm-8.997 31.42a2 2 0 1 0-.986 3.877l3 .762a2 2 0 1 0 .986-3.876z"/></svg>